<svg xmlns="http://www.w3.org/2000/svg" width="151" viewBox="0 0 181.804 20.468"><path d="M2.968-4.564a8.185,8.185,0,0,0,2.24,1.5,6.034,6.034,0,0,0,2.52.574,3.768,3.768,0,0,0,2.38-.644,2.071,2.071,0,0,0,.812-1.708,1.993,1.993,0,0,0-.21-.952,2.156,2.156,0,0,0-.588-.686,5.066,5.066,0,0,0-.9-.546q-.518-.252-1.134-.5L5.572-8.624a8.674,8.674,0,0,1-1.33-.7,5.827,5.827,0,0,1-1.19-1.008A4.667,4.667,0,0,1,2.2-11.7,4.684,4.684,0,0,1,1.876-13.5a4.532,4.532,0,0,1,.462-2.03,5.15,5.15,0,0,1,1.274-1.638,5.89,5.89,0,0,1,1.946-1.092,7.539,7.539,0,0,1,2.478-.392,7.805,7.805,0,0,1,3.08.63,7.953,7.953,0,0,1,2.548,1.694l-1.652,2.072A8.158,8.158,0,0,0,10.164-15.4a5.217,5.217,0,0,0-2.128-.42,3.479,3.479,0,0,0-2.1.574,1.853,1.853,0,0,0-.784,1.582,1.673,1.673,0,0,0,.238.91,2.435,2.435,0,0,0,.644.672,5.251,5.251,0,0,0,.938.532q.532.238,1.092.462l2.492,1.036a8.583,8.583,0,0,1,1.484.784A5.4,5.4,0,0,1,13.2-8.232a4.505,4.505,0,0,1,.77,1.358,5.19,5.19,0,0,1,.28,1.778A4.991,4.991,0,0,1,13.8-3a5.043,5.043,0,0,1-1.3,1.722A6.39,6.39,0,0,1,10.43-.1,8.184,8.184,0,0,1,7.672.336a9.394,9.394,0,0,1-3.57-.7A9.316,9.316,0,0,1,1.064-2.352ZM17.78-11.2H15.82v-2.408l2.128-.14L18.34-17.5h2.688v3.752h3.5V-11.2h-3.5v6.552q0,2.408,1.932,2.408a3.414,3.414,0,0,0,.742-.084,3.479,3.479,0,0,0,.686-.224l.56,2.38a10.717,10.717,0,0,1-1.274.35,7.228,7.228,0,0,1-1.526.154,5.03,5.03,0,0,1-2.03-.364A3.441,3.441,0,0,1,18.774-1.05a4.231,4.231,0,0,1-.756-1.568,8.025,8.025,0,0,1-.238-2.03ZM26.4-3.7a3.808,3.808,0,0,1,1.932-3.416,15.382,15.382,0,0,1,6.16-1.68,3.7,3.7,0,0,0-.14-1.022,2.53,2.53,0,0,0-.434-.868,1.974,1.974,0,0,0-.756-.588A2.812,2.812,0,0,0,32-11.48a5.276,5.276,0,0,0-2,.392,12.074,12.074,0,0,0-1.862.952l-1.176-2.156a13.924,13.924,0,0,1,2.562-1.26,8.638,8.638,0,0,1,3.066-.532,4.722,4.722,0,0,1,3.864,1.526,6.767,6.767,0,0,1,1.26,4.41V0H35.084l-.252-1.512h-.084A10.1,10.1,0,0,1,32.774-.2a4.977,4.977,0,0,1-2.282.532A4.051,4.051,0,0,1,27.538-.77,3.9,3.9,0,0,1,26.4-3.7Zm3.136-.252A1.589,1.589,0,0,0,30.086-2.6a2.254,2.254,0,0,0,1.414.42,3.1,3.1,0,0,0,1.54-.392A7.263,7.263,0,0,0,34.5-3.7v-3.08a14.7,14.7,0,0,0-2.352.448,6.486,6.486,0,0,0-1.526.63,2.268,2.268,0,0,0-.826.8A1.912,1.912,0,0,0,29.54-3.948Zm12.1-9.8H44.3l.224,2.436h.112A5.771,5.771,0,0,1,46.4-13.37a3.708,3.708,0,0,1,2.128-.714,3.685,3.685,0,0,1,1.568.28l-.56,2.8a5.879,5.879,0,0,0-.672-.168,4.315,4.315,0,0,0-.756-.056,3,3,0,0,0-1.708.63,4.867,4.867,0,0,0-1.54,2.2V0h-3.22Zm10.444-6.02H55.3V-3.36a1.2,1.2,0,0,0,.224.826A.653.653,0,0,0,56-2.3h.21a1.187,1.187,0,0,0,.294-.056l.42,2.408a4.345,4.345,0,0,1-1.708.28A2.724,2.724,0,0,1,52.78-.7a4.991,4.991,0,0,1-.7-2.828ZM58.772-6.86A8.158,8.158,0,0,1,59.3-9.884a6.937,6.937,0,0,1,1.414-2.268,6.265,6.265,0,0,1,2.03-1.428,5.8,5.8,0,0,1,2.352-.5,5.982,5.982,0,0,1,2.464.476,4.807,4.807,0,0,1,1.778,1.344,5.912,5.912,0,0,1,1.078,2.072,9.062,9.062,0,0,1,.364,2.632,6.489,6.489,0,0,1-.14,1.512H61.908a4.531,4.531,0,0,0,1.3,2.884,3.877,3.877,0,0,0,2.758,1.008,5.069,5.069,0,0,0,1.666-.266,7.4,7.4,0,0,0,1.526-.742l1.092,2.016A9.887,9.887,0,0,1,68.068-.084a7.6,7.6,0,0,1-2.52.42,7.132,7.132,0,0,1-2.66-.49,6.316,6.316,0,0,1-2.156-1.414A6.45,6.45,0,0,1,59.29-3.822,8.325,8.325,0,0,1,58.772-6.86Zm9.212-1.232a4.247,4.247,0,0,0-.686-2.576,2.46,2.46,0,0,0-2.114-.924,3.024,3.024,0,0,0-2.156.882A4.245,4.245,0,0,0,61.88-8.092ZM73.892-11.2h-1.96v-2.408l2.128-.14.392-3.752H77.14v3.752h3.5V-11.2h-3.5v6.552q0,2.408,1.932,2.408a3.414,3.414,0,0,0,.742-.084,3.479,3.479,0,0,0,.686-.224l.56,2.38a10.717,10.717,0,0,1-1.274.35A7.229,7.229,0,0,1,78.26.336a5.03,5.03,0,0,1-2.03-.364A3.441,3.441,0,0,1,74.886-1.05a4.231,4.231,0,0,1-.756-1.568,8.025,8.025,0,0,1-.238-2.03ZM84-11.2H82.04v-2.408l2.128-.14L84.56-17.5h2.688v3.752h3.5V-11.2h-3.5v6.552q0,2.408,1.932,2.408a3.414,3.414,0,0,0,.742-.084,3.479,3.479,0,0,0,.686-.224l.56,2.38a10.717,10.717,0,0,1-1.274.35,7.229,7.229,0,0,1-1.526.154,5.03,5.03,0,0,1-2.03-.364A3.441,3.441,0,0,1,84.994-1.05a4.231,4.231,0,0,1-.756-1.568A8.025,8.025,0,0,1,84-4.648Zm8.456,4.34a8.158,8.158,0,0,1,.532-3.024A6.937,6.937,0,0,1,94.4-12.152a6.265,6.265,0,0,1,2.03-1.428,5.8,5.8,0,0,1,2.352-.5,5.982,5.982,0,0,1,2.464.476,4.807,4.807,0,0,1,1.778,1.344,5.912,5.912,0,0,1,1.078,2.072,9.062,9.062,0,0,1,.364,2.632,6.489,6.489,0,0,1-.14,1.512H95.592a4.531,4.531,0,0,0,1.3,2.884,3.877,3.877,0,0,0,2.758,1.008,5.069,5.069,0,0,0,1.666-.266,7.4,7.4,0,0,0,1.526-.742l1.092,2.016a9.887,9.887,0,0,1-2.184,1.064,7.6,7.6,0,0,1-2.52.42,7.132,7.132,0,0,1-2.66-.49,6.316,6.316,0,0,1-2.156-1.414,6.45,6.45,0,0,1-1.442-2.254A8.325,8.325,0,0,1,92.456-6.86Zm9.212-1.232a4.247,4.247,0,0,0-.686-2.576,2.46,2.46,0,0,0-2.114-.924,3.024,3.024,0,0,0-2.156.882,4.245,4.245,0,0,0-1.148,2.618Zm20.216.672-1.176-3.444q-.56-1.652-1.064-3.164t-.98-3.22h-.112q-.476,1.708-.98,3.22t-1.064,3.164L115.332-7.42Zm.364,1.092H114.94L112.756,0h-1.288l6.5-18.452h1.288L125.748,0H124.4Zm5.18-.364a8.6,8.6,0,0,1,.476-2.94,6.775,6.775,0,0,1,1.3-2.24,5.7,5.7,0,0,1,1.9-1.414,5.451,5.451,0,0,1,2.282-.49,4.929,4.929,0,0,1,2.142.434,10.618,10.618,0,0,1,1.918,1.218l-.056-2.464v-5.544h1.232V0h-1.064l-.112-1.736h-.084A8.971,8.971,0,0,1,135.45-.294a4.862,4.862,0,0,1-2.45.63,5.023,5.023,0,0,1-4.06-1.806A7.936,7.936,0,0,1,127.428-6.692Zm1.316,0a9.369,9.369,0,0,0,.294,2.436,5.616,5.616,0,0,0,.854,1.862,3.99,3.99,0,0,0,1.386,1.2,4,4,0,0,0,1.89.434,4.313,4.313,0,0,0,2.142-.574A9.791,9.791,0,0,0,137.4-2.968v-7.98a7.36,7.36,0,0,0-2-1.344,4.931,4.931,0,0,0-1.918-.392,3.932,3.932,0,0,0-1.876.462,4.72,4.72,0,0,0-1.5,1.26,6.137,6.137,0,0,0-.994,1.9A7.522,7.522,0,0,0,128.744-6.692ZM143.78-13.44h1.064l.112,2.072h.084a8.716,8.716,0,0,1,2-1.722,4.188,4.188,0,0,1,2.226-.686,3.73,3.73,0,0,1,2.492.742,4.025,4.025,0,0,1,1.232,2,13.412,13.412,0,0,1,2.282-2,4.045,4.045,0,0,1,2.282-.742q4.032,0,4.032,5.152V0h-1.26V-8.456a5.53,5.53,0,0,0-.728-3.178,2.6,2.6,0,0,0-2.268-1.022q-1.82,0-4.032,2.52V0h-1.232V-8.456a5.53,5.53,0,0,0-.728-3.178,2.625,2.625,0,0,0-2.3-1.022q-1.82,0-4.032,2.52V0H143.78Zm23.38-3.248a1.11,1.11,0,0,1-.8-.308,1.038,1.038,0,0,1-.322-.784,1.062,1.062,0,0,1,.322-.826,1.139,1.139,0,0,1,.8-.294,1.139,1.139,0,0,1,.8.294,1.062,1.062,0,0,1,.322.826,1.038,1.038,0,0,1-.322.784A1.11,1.11,0,0,1,167.16-16.688Zm-.644,3.248h1.232V0h-1.232Zm6.412,0h1.064l.112,2.072h.084a12.218,12.218,0,0,1,2.128-1.722,4.586,4.586,0,0,1,2.492-.686,3.659,3.659,0,0,1,3.08,1.26,6.317,6.317,0,0,1,.98,3.892V0h-1.232V-8.456a5.616,5.616,0,0,0-.714-3.178,2.681,2.681,0,0,0-2.366-1.022,3.954,3.954,0,0,0-2.184.63,13.322,13.322,0,0,0-2.212,1.89V0h-1.232Z" transform="translate(-1.064 20.132)" fill="#fff"/></svg>